Coordinates
version=1
nRows=10
nColumns=33
inDegrees=yes

Units are S.I. units (second, meters, Newtons, ...)
Angles are in degrees.

endheader
time	ground_thorax_rot_x	ground_thorax_rot_y	ground_thorax_rot_z	ground_thorax_tx	ground_thorax_ty	ground_thorax_tz	clav_prot_r	clav_elev_r	scapula_abduction_r	scapula_elevation_r	scapula_upward_rot_r	scapula_winging_r	shoulder_elv_r	plane_of_elev_r	axial_rot_r	elbow_flexion_r	pro_sup_r	wrist_flex_r	wrist_dev_r	clav_prot_l	clav_elev_l	scapula_abduction_l	scapula_elevation_l	scapula_upward_rot_l	scapula_winging_l	shoulder_elv_l	plane_of_elev_l	axial_rot_l	elbow_flexion_l	pro_sup_l	wrist_flex_l	wrist_dev_l
      1.60000000	      1.90931764	      6.10466334	     -4.02028634	     -0.14896956	      1.00579493	      0.01068668	    -20.32412172	     -8.70710173	    -27.28026048	     -4.69343705	      8.12057090	      2.34985876	     68.25265831	    -50.62500980	     59.90459207	     86.97576077	     21.42704358	     29.58696349	    -11.87192898	     -1.13685832	      0.28842461	     -1.73053299	     -6.00220214	      0.40770395	      1.46784824	     41.21954337	    -55.22873963	    -21.84916186	     82.01242568	     16.05029838	    -10.56534700	    -24.99999983
      1.61000000	      1.89165170	      6.11362384	     -3.99263139	     -0.14895749	      1.00573095	      0.01065413	    -20.32190622	     -8.71105961	    -27.27226273	     -4.69954500	      8.12849473	      2.35011185	     68.25086119	    -50.61939417	     59.90369192	     86.98203342	     21.42713415	     29.58175741	    -11.87176199	     -1.13722581	      0.27743868	     -1.73536473	     -5.98889431	      0.41330226	      1.47020136	     41.22320557	    -55.20422042	    -21.84477471	     82.01675063	     16.04873209	    -10.57212979	    -24.99999983
      1.62000000	      1.88998115	      6.11517497	     -3.98736515	     -0.14876521	      1.00558225	      0.01067251	    -20.32148529	     -8.71219443	    -27.27030688	     -4.70076663	      8.12925958	      2.35099074	     68.25023062	    -50.61780600	     59.90353776	     86.98275635	     21.42712546	     29.58127449	    -11.87172640	     -1.13683556	      0.27545987	     -1.73666914	     -5.98692566	      0.41510239	      1.46896418	     41.22389172	    -55.20039798	    -21.84411257	     82.01732027	     16.04855398	    -10.57283787	    -24.99999983
      1.63000000	      1.88615801	      6.11739066	     -3.97869214	     -0.14854304	      1.00542824	      0.01068538	    -20.32039314	     -8.71439325	    -27.26741668	     -4.70165585	      8.13148448	      2.35234996	     68.24994678	    -50.61478373	     59.90281494	     86.98403517	     21.42700576	     29.58079649	    -11.87174998	     -1.13678938	      0.27075374	     -1.73891398	     -5.98477962	      0.41900938	      1.46795581	     41.22524350	    -55.19384126	    -21.84293382	     82.01869290	     16.04827111	    -10.57375137	    -24.99999983
      1.64000000	      1.84585453	      6.14868817	     -3.90572203	     -0.14890659	      1.00559290	      0.01056056	    -20.31262573	     -8.72342959	    -27.23488318	     -4.72059664	      8.14908704	      2.35290914	     68.25101551	    -50.58320290	     59.89536058	     86.99855850	     21.42568533	     29.57577688	    -11.87199873	     -1.14168674	      0.24414871	     -1.75417837	     -5.94568142	      0.45071059	      1.47714620	     41.24585439	    -55.12966706	    -21.82553880	     82.03630758	     16.04477091	    -10.58487687	    -24.99999983
      1.65000000	      1.84593921	      6.15179432	     -3.90017239	     -0.14865303	      1.00545614	      0.01057612	    -20.30886485	     -8.72674468	    -27.23289984	     -4.72136737	      8.15063758	      2.35370565	     68.24965097	    -50.58046560	     59.89575053	     86.99932566	     21.42573411	     29.57510271	    -11.87182444	     -1.14083109	      0.24333185	     -1.75595011	     -5.94220855	      0.45356864	      1.47592388	     41.24807094	    -55.12446764	    -21.82405054	     82.03792035	     16.04444901	    -10.58600083	    -24.99999983
      1.66000000	      1.83400136	      6.17699803	     -3.84893275	     -0.14881269	      1.00550272	      0.01056923	    -20.29588699	     -8.73952499	    -27.20360536	     -4.73471527	      8.16186454	      2.35770578	     68.24531683	    -50.55350460	     59.89568784	     87.00845306	     21.42532713	     29.56980202	    -11.87090351	     -1.14288341	      0.22606155	     -1.77277903	     -5.91247318	      0.48776893	      1.48338288	     41.27392324	    -55.06754537	    -21.80706212	     82.06259262	     16.04057735	    -10.59663604	    -24.99999983
      1.67000000	      1.82154294	      6.20226684	     -3.82960831	     -0.14888147	      1.00552517	      0.01051636	    -20.28203424	     -8.74778207	    -27.17727471	     -4.74590258	      8.16557170	      2.35805920	     68.23853252	    -50.53408965	     59.90154261	     87.01446725	     21.42553457	     29.56300149	    -11.86912887	     -1.14274087	      0.21190573	     -1.78614240	     -5.88906222	      0.50894690	      1.49208470	     41.29122189	    -55.02034350	    -21.79758906	     82.09103888	     16.03717320	    -10.60687618	    -24.99999983
      1.68000000	      1.81351530	      6.27291862	     -3.97397435	     -0.14887159	      1.00529302	      0.01037907	    -20.23242098	     -8.78414301	    -27.07957796	     -4.77757194	      8.17497112	      2.37430123	     68.19193047	    -50.50529572	     59.94672644	     87.02623373	     21.42416737	     29.49978221	    -11.85708396	     -1.11976459	      0.18336365	     -1.85163107	     -5.85289491	      0.53929165	      1.51049245	     41.35517790	    -54.85135326	    -21.79171696	     82.27793525	     16.01766093	    -10.66984034	    -24.99999983
      1.69000000	      1.80956554	      6.26717946	     -3.91788829	     -0.14889407	      1.00531950	      0.01040050	    -20.23368187	     -8.79898729	    -27.06795669	     -4.79805716	      8.19450734	      2.37692356	     68.19297407	    -50.48833298	     59.92997816	     87.04069617	     21.41985092	     29.49398900	    -11.85895229	     -1.11912235	      0.17279647	     -1.86556671	     -5.83421128	      0.56118218	      1.51434539	     41.37188038	    -54.81079396	    -21.78391002	     82.30294941	     16.01391199	    -10.67655204	    -24.99999983
